Complete name : Perks Of Being A WallFlower 2012 DVDSCR Xvid AC3 ADTRG.avi 
http://www.imdb.com/title/tt1659337/
Source : Perks Of Being A WallFlower 2012 DVDSCR.mkv
Format : AVI
Format/Info : Audio Video Interleave
File size : 1.55 GiB
Duration : 1h 42mn
Overall bit rate : 2 157 Kbps
Writing application : VirtualDubMod 1.5.10.2 (build 2540/release)
Writing library : VirtualDubMod build 2540/release

Video
ID : 0
Format : MPEG-4 Visual
Format profile : Advanced Simple@L5
Format settings, BVOP : 2
Format settings, QPel : No
Format settings, GMC : No warppoints
Format settings, Matrix : Default (H.263)
Muxing mode : Packed bitstream
Codec ID : XVID
Codec ID/Hint : XviD
Duration : 1h 42mn
Bit rate : 1 698 Kbps
Width : 720 pixels
Height : 400 pixels
Display aspect ratio : 16:9
Frame rate : 29.970 fps
Color space : YUV
Chroma subsampling : 4:2:0
Bit depth : 8 bits
Scan type : Progressive
Compression mode : Lossy
Bits/(Pixel*Frame) : 0.197
Stream size : 1.22 GiB (79%)
Writing library : XviD 64

Audio
ID : 1
Format : AC-3
Format/Info : Audio Coding 3
Mode extension : CM (complete main)
Codec ID : 2000
Duration : 1h 42mn
Bit rate mode : Constant
Bit rate : 448 Kbps
Channel(s) : 6 channels
Channel positions : Front: L C R, Side: L R, LFE
Sampling rate : 48.0 KHz
Bit depth : 16 bits
Compression mode : Lossy
Stream size : 329 MiB (21%)
Alignment : Split accross interleaves
Interleave, duration : 33 ms (1.00 video frame)
Interleave, preload duration : 500 ms
 
http://www.shotpix.com/images/90789171722234363744.jpeg
 
http://www.shotpix.com/images/73176705624083432736.jpeg
 
http://www.shotpix.com/images/26844048275508615743.jpeg
 
http://www.shotpix.com/images/42454213190463703402.jpeg